<svg xmlns="http://www.w3.org/2000/svg" xmlns:xlink="http://www.w3.org/1999/xlink" width="120" zoomAndPan="magnify" viewBox="0 0 90 30.000001" height="40" preserveAspectRatio="xMidYMid meet" version="1.0"><defs><g/><clipPath id="b26ce7592c"><path d="M 4.355469 11 L 18 11 L 18 25.699219 L 4.355469 25.699219 Z M 4.355469 11 " clip-rule="nonzero"/></clipPath><clipPath id="0b4f9e1641"><path d="M 14 5.378906 L 27.582031 5.378906 L 27.582031 25.699219 L 14 25.699219 Z M 14 5.378906 " clip-rule="nonzero"/></clipPath><clipPath id="2288e56172"><path d="M 4.355469 24 L 16 24 L 16 25.699219 L 4.355469 25.699219 Z M 4.355469 24 " clip-rule="nonzero"/></clipPath><clipPath id="a45eff06c5"><path d="M 14 8 L 27.582031 8 L 27.582031 25.699219 L 14 25.699219 Z M 14 8 " clip-rule="nonzero"/></clipPath><clipPath id="88380d7b56"><path d="M 14 5.378906 L 16 5.378906 L 16 9 L 14 9 Z M 14 5.378906 " clip-rule="nonzero"/></clipPath></defs><g clip-path="url(#b26ce7592c)"><path fill="#38b6ff" d="M 15.96875 11.972656 L 12.203125 11.972656 L 4.355469 25.683594 L 15.648438 25.683594 L 17.851562 21.835938 L 16.289062 19.109375 L 15.96875 18.546875 L 15.648438 19.109375 L 13.765625 22.394531 L 10 22.394531 Z M 15.96875 11.972656 " fill-opacity="1" fill-rule="evenodd"/></g><g clip-path="url(#0b4f9e1641)"><path fill="#83858c" d="M 27.582031 25.683594 L 21.773438 15.539062 L 15.96875 5.394531 L 14.085938 8.683594 L 14.953125 10.195312 L 15.96875 11.972656 L 17 13.773438 L 21.933594 22.394531 L 22.949219 24.171875 L 23.816406 25.683594 Z M 27.582031 25.683594 " fill-opacity="1" fill-rule="evenodd"/></g><path fill="#2493d4" d="M 15.96875 11.972656 L 13.042969 13.527344 L 6.953125 24.171875 L 10 22.394531 Z M 15.96875 11.972656 " fill-opacity="1" fill-rule="evenodd"/><g clip-path="url(#2288e56172)"><path fill="#2493d4" d="M 6.953125 24.171875 L 4.355469 25.683594 L 15.53125 25.683594 L 14.71875 24.171875 Z M 6.953125 24.171875 " fill-opacity="1" fill-rule="evenodd"/></g><path fill="#2493d4" d="M 13.765625 22.394531 L 14.71875 24.171875 L 15.695312 22.394531 L 16.082031 21.695312 L 15.96875 18.546875 Z M 13.765625 22.394531 " fill-opacity="1" fill-rule="evenodd"/><g clip-path="url(#a45eff06c5)"><path fill="#68696e" d="M 17 13.773438 L 21.933594 22.394531 L 22.949219 24.171875 L 23.816406 25.683594 L 27.582031 25.683594 L 24.980469 24.171875 L 15.96875 8.421875 L 14.085938 8.683594 L 14.953125 10.195312 L 15.96875 11.972656 Z M 17 13.773438 " fill-opacity="1" fill-rule="evenodd"/></g><g clip-path="url(#88380d7b56)"><path fill="#8b8d93" d="M 15.96875 8.421875 L 15.96875 5.394531 L 14.085938 8.683594 Z M 15.96875 8.421875 " fill-opacity="1" fill-rule="evenodd"/></g><g fill="#179deb" fill-opacity="1"><g transform="translate(30.82282, 11.324194)"><g><path d="M 1.328125 0.046875 C 1.046875 0.015625 0.71875 0 0.34375 0 L -0.046875 0 L 2.09375 -6.03125 C 2.195312 -6.300781 2.25 -6.457031 2.25 -6.5 C 2.25 -6.550781 2.242188 -6.582031 2.234375 -6.59375 L 2.25 -6.59375 C 2.457031 -6.582031 2.679688 -6.578125 2.921875 -6.578125 C 3.117188 -6.578125 3.359375 -6.582031 3.640625 -6.59375 L 3.640625 -6.578125 C 3.640625 -6.566406 3.640625 -6.550781 3.640625 -6.53125 C 3.640625 -6.46875 3.6875 -6.300781 3.78125 -6.03125 L 5.984375 0.015625 C 5.910156 0.015625 5.832031 0.015625 5.75 0.015625 C 5.75 0.015625 5.660156 0.0078125 5.484375 0 C 5.410156 0 5.335938 0 5.265625 0 L 4.5 0 L 4.03125 -1.421875 L 1.796875 -1.421875 Z M 3.65625 -2.609375 L 2.90625 -4.921875 L 2.171875 -2.609375 Z M 3.65625 -2.609375 "/></g></g></g><g fill="#179deb" fill-opacity="1"><g transform="translate(39.274709, 11.324194)"><g><path d="M 2.984375 -2.5625 C 2.878906 -2.550781 2.769531 -2.546875 2.65625 -2.546875 C 2.550781 -2.546875 2.382812 -2.554688 2.15625 -2.578125 L 2.15625 0 L 0.859375 0 L 0.859375 -6.625 C 1.316406 -6.675781 1.882812 -6.703125 2.5625 -6.703125 C 3.476562 -6.703125 4.160156 -6.53125 4.609375 -6.1875 C 5.054688 -5.851562 5.28125 -5.335938 5.28125 -4.640625 C 5.28125 -4.085938 5.078125 -3.617188 4.671875 -3.234375 C 4.535156 -3.109375 4.378906 -3 4.203125 -2.90625 L 5.203125 -0.765625 C 5.398438 -0.328125 5.554688 -0.0664062 5.671875 0.015625 L 5.640625 0.03125 C 5.316406 -0.0195312 4.8125 -0.015625 4.125 0.046875 Z M 2.65625 -5.546875 C 2.476562 -5.546875 2.3125 -5.535156 2.15625 -5.515625 L 2.15625 -3.625 C 2.320312 -3.601562 2.515625 -3.59375 2.734375 -3.59375 C 2.953125 -3.59375 3.132812 -3.609375 3.28125 -3.640625 C 3.425781 -3.679688 3.554688 -3.742188 3.671875 -3.828125 C 3.898438 -3.992188 4.015625 -4.253906 4.015625 -4.609375 C 4.015625 -4.960938 3.894531 -5.207031 3.65625 -5.34375 C 3.425781 -5.476562 3.09375 -5.546875 2.65625 -5.546875 Z M 2.65625 -5.546875 "/></g></g></g><g fill="#68696e" fill-opacity="1"><g transform="translate(47.69782, 11.324194)"><g/></g></g><g fill="#68696e" fill-opacity="1"><g transform="translate(30.82282, 25.114516)"><g><path d="M 2.984375 -2.5625 C 2.878906 -2.550781 2.769531 -2.546875 2.65625 -2.546875 C 2.550781 -2.546875 2.382812 -2.554688 2.15625 -2.578125 L 2.15625 0 L 0.859375 0 L 0.859375 -6.625 C 1.316406 -6.675781 1.882812 -6.703125 2.5625 -6.703125 C 3.476562 -6.703125 4.160156 -6.53125 4.609375 -6.1875 C 5.054688 -5.851562 5.28125 -5.335938 5.28125 -4.640625 C 5.28125 -4.085938 5.078125 -3.617188 4.671875 -3.234375 C 4.535156 -3.109375 4.378906 -3 4.203125 -2.90625 L 5.203125 -0.765625 C 5.398438 -0.328125 5.554688 -0.0664062 5.671875 0.015625 L 5.640625 0.03125 C 5.316406 -0.0195312 4.8125 -0.015625 4.125 0.046875 Z M 2.65625 -5.546875 C 2.476562 -5.546875 2.3125 -5.535156 2.15625 -5.515625 L 2.15625 -3.625 C 2.320312 -3.601562 2.515625 -3.59375 2.734375 -3.59375 C 2.953125 -3.59375 3.132812 -3.609375 3.28125 -3.640625 C 3.425781 -3.679688 3.554688 -3.742188 3.671875 -3.828125 C 3.898438 -3.992188 4.015625 -4.253906 4.015625 -4.609375 C 4.015625 -4.960938 3.894531 -5.207031 3.65625 -5.34375 C 3.425781 -5.476562 3.09375 -5.546875 2.65625 -5.546875 Z M 2.65625 -5.546875 "/></g></g></g><g fill="#68696e" fill-opacity="1"><g transform="translate(39.254908, 25.114516)"><g><path d="M 1.328125 0.046875 C 1.046875 0.015625 0.71875 0 0.34375 0 L -0.046875 0 L 2.09375 -6.03125 C 2.195312 -6.300781 2.25 -6.457031 2.25 -6.5 C 2.25 -6.550781 2.242188 -6.582031 2.234375 -6.59375 L 2.25 -6.59375 C 2.457031 -6.582031 2.679688 -6.578125 2.921875 -6.578125 C 3.117188 -6.578125 3.359375 -6.582031 3.640625 -6.59375 L 3.640625 -6.578125 C 3.640625 -6.566406 3.640625 -6.550781 3.640625 -6.53125 C 3.640625 -6.46875 3.6875 -6.300781 3.78125 -6.03125 L 5.984375 0.015625 C 5.910156 0.015625 5.832031 0.015625 5.75 0.015625 C 5.75 0.015625 5.660156 0.0078125 5.484375 0 C 5.410156 0 5.335938 0 5.265625 0 L 4.5 0 L 4.03125 -1.421875 L 1.796875 -1.421875 Z M 3.65625 -2.609375 L 2.90625 -4.921875 L 2.171875 -2.609375 Z M 3.65625 -2.609375 "/></g></g></g><g fill="#68696e" fill-opacity="1"><g transform="translate(47.706797, 25.114516)"><g><path d="M 2.1875 0.03125 C 1.875 0.0078125 1.5 0 1.0625 0 L 0.90625 0 L 0.90625 -6.609375 C 1.101562 -6.585938 1.25 -6.578125 1.34375 -6.578125 L 1.546875 -6.578125 C 1.804688 -6.578125 2.019531 -6.59375 2.1875 -6.625 L 2.1875 -3.984375 L 4.515625 -3.984375 L 4.515625 -6.609375 C 4.785156 -6.585938 5.050781 -6.578125 5.3125 -6.578125 C 5.570312 -6.578125 5.734375 -6.59375 5.796875 -6.625 L 5.796875 0.03125 C 5.640625 0.0078125 5.328125 0 4.859375 0 L 4.515625 0 L 4.515625 -2.796875 L 2.1875 -2.796875 Z M 2.1875 0.03125 "/></g></g></g><g fill="#179deb" fill-opacity="1"><g transform="translate(56.974534, 25.114516)"><g><path d="M 2.1875 0.03125 C 2.03125 0.0078125 1.722656 0 1.265625 0 L 0.875 0 L 0.875 -6.609375 C 1.082031 -6.585938 1.3125 -6.578125 1.5625 -6.578125 C 1.820312 -6.578125 2.003906 -6.59375 2.109375 -6.625 L 3.78125 -3.796875 L 5.375 -6.625 C 5.476562 -6.59375 5.675781 -6.578125 5.96875 -6.578125 C 6.269531 -6.578125 6.53125 -6.585938 6.75 -6.609375 L 6.75 0 L 6.34375 0 C 5.894531 0 5.59375 0.0078125 5.4375 0.03125 L 5.4375 -4.40625 L 3.8125 -1.515625 L 2.1875 -4.171875 Z M 2.1875 0.03125 "/></g></g></g><g fill="#179deb" fill-opacity="1"><g transform="translate(67.119491, 25.114516)"><g><path d="M 1.328125 0.046875 C 1.046875 0.015625 0.71875 0 0.34375 0 L -0.046875 0 L 2.09375 -6.03125 C 2.195312 -6.300781 2.25 -6.457031 2.25 -6.5 C 2.25 -6.550781 2.242188 -6.582031 2.234375 -6.59375 L 2.25 -6.59375 C 2.457031 -6.582031 2.679688 -6.578125 2.921875 -6.578125 C 3.117188 -6.578125 3.359375 -6.582031 3.640625 -6.59375 L 3.640625 -6.578125 C 3.640625 -6.566406 3.640625 -6.550781 3.640625 -6.53125 C 3.640625 -6.46875 3.6875 -6.300781 3.78125 -6.03125 L 5.984375 0.015625 C 5.910156 0.015625 5.832031 0.015625 5.75 0.015625 C 5.75 0.015625 5.660156 0.0078125 5.484375 0 C 5.410156 0 5.335938 0 5.265625 0 L 4.5 0 L 4.03125 -1.421875 L 1.796875 -1.421875 Z M 3.65625 -2.609375 L 2.90625 -4.921875 L 2.171875 -2.609375 Z M 3.65625 -2.609375 "/></g></g></g><g fill="#179deb" fill-opacity="1"><g transform="translate(75.57138, 25.114516)"><g><path d="M 0.890625 0 C 0.910156 -0.113281 0.921875 -0.234375 0.921875 -0.359375 L 0.921875 -6.578125 L 1.921875 -6.578125 L 4.546875 -2.453125 L 4.546875 -6.25 C 4.546875 -6.425781 4.523438 -6.535156 4.484375 -6.578125 L 5.828125 -6.578125 C 5.804688 -6.453125 5.796875 -6.3125 5.796875 -6.15625 L 5.796875 0 L 4.765625 0 L 2.1875 -3.96875 L 2.1875 0 Z M 0.890625 0 "/></g></g></g></svg>